<?xml version="1.0" encoding="iso-8859-1"?>
<!-- Generator: Adobe Illustrator 16.0.0, SVG Export Plug-In . SVG Version: 6.00 Build 0)  -->
<!DOCTYPE svg PUBLIC "-//W3C//DTD SVG 1.1//EN" "http://www.w3.org/Graphics/SVG/1.1/DTD/svg11.dtd">
<svg version="1.1" id="Capa_1" xmlns="http://www.w3.org/2000/svg" xmlns:xlink="http://www.w3.org/1999/xlink" x="0px" y="0px"
	 width="314.069px" height="314.069px" viewBox="0 0 314.069 314.069" style="enable-background:new 0 0 314.069 314.069;"
	 xml:space="preserve">
<g>
	<g id="_x34_99._Up">
		<g>
			<path d="M293.003,78.531C249.646,3.436,153.619-22.295,78.529,21.061C3.434,64.411-22.297,160.443,21.067,235.542
				c43.35,75.087,139.375,100.822,214.465,57.467C310.628,249.648,336.371,153.621,293.003,78.531z M219.835,265.802
				c-60.067,34.685-136.894,14.114-171.576-45.961C13.577,159.762,34.161,82.943,94.23,48.261
				c60.071-34.69,136.894-14.106,171.578,45.971C300.493,154.308,279.906,231.118,219.835,265.802z M168.132,121.034
				c-3.066-3.07-7.077-4.599-11.097-4.599c-4.018,0-8.031,1.529-11.101,4.599l-44.409,44.406c-6.133,6.128-6.133,16.078,0,22.206
				v-0.009c6.129,6.132,16.076,6.132,22.201,0l33.308-33.299l33.298,33.299c6.135,6.132,16.077,6.132,22.201,0v0.009
				c6.135-6.128,6.135-16.078,0-22.206L168.132,121.034z"/>
		</g>
	</g>
</g>
<g>
</g>
<g>
</g>
<g>
</g>
<g>
</g>
<g>
</g>
<g>
</g>
<g>
</g>
<g>
</g>
<g>
</g>
<g>
</g>
<g>
</g>
<g>
</g>
<g>
</g>
<g>
</g>
<g>
</g>
</svg>
